<?xml version="1.0" encoding="UTF-8" standalone="no"?>
<!DOCTYPE svg PUBLIC "-//W3C//DTD SVG 1.1//EN"
 "http://www.w3.org/Graphics/SVG/1.1/DTD/svg11.dtd">
<!-- Generated by graphviz version 7.0.4 (20221203.1631)
 -->
<!-- Title: G Pages: 1 -->
<svg width="440pt" height="280pt"
 viewBox="0.00 0.00 439.93 279.98" xmlns="http://www.w3.org/2000/svg" xmlns:xlink="http://www.w3.org/1999/xlink">
<g id="graph0" class="graph" transform="scale(1 1) rotate(0) translate(4 275.98)">
<title>G</title>
<polygon fill="white" stroke="none" points="-4,4 -4,-275.98 435.93,-275.98 435.93,4 -4,4"/>
<!-- R1 -->
<g id="node1" class="node">
<title>R1</title>
<ellipse fill="none" stroke="black" cx="161.41" cy="-160.61" rx="27" ry="18"/>
<text text-anchor="middle" x="161.41" y="-156.91" font-family="Times New Roman,serif" font-size="14.00">R1</text>
</g>
<!-- R2 -->
<g id="node2" class="node">
<title>R2</title>
<ellipse fill="none" stroke="black" cx="234.95" cy="-192.5" rx="27" ry="18"/>
<text text-anchor="middle" x="234.95" y="-188.8" font-family="Times New Roman,serif" font-size="14.00">R2</text>
</g>
<!-- R1&#45;&#45;R2 -->
<g id="edge1" class="edge">
<title>R1&#45;&#45;R2</title>
<path fill="none" stroke="black" d="M184.27,-170.53C193.04,-174.33 203.05,-178.67 211.84,-182.48"/>
</g>
<!-- R3 -->
<g id="node3" class="node">
<title>R3</title>
<ellipse fill="none" stroke="black" cx="269.43" cy="-112.75" rx="27" ry="18"/>
<text text-anchor="middle" x="269.43" y="-109.05" font-family="Times New Roman,serif" font-size="14.00">R3</text>
</g>
<!-- R2&#45;&#45;R3 -->
<g id="edge2" class="edge">
<title>R2&#45;&#45;R3</title>
<path fill="none" stroke="black" d="M242.6,-174.8C248.31,-161.59 256.09,-143.61 261.8,-130.4"/>
</g>
<!-- R4 -->
<g id="node4" class="node">
<title>R4</title>
<ellipse fill="none" stroke="black" cx="196.05" cy="-80.93" rx="27" ry="18"/>
<text text-anchor="middle" x="196.05" y="-77.23" font-family="Times New Roman,serif" font-size="14.00">R4</text>
</g>
<!-- R3&#45;&#45;R4 -->
<g id="edge3" class="edge">
<title>R3&#45;&#45;R4</title>
<path fill="none" stroke="black" d="M246.61,-102.86C237.86,-99.06 227.87,-94.73 219.1,-90.93"/>
</g>
<!-- R4&#45;&#45;R1 -->
<g id="edge4" class="edge">
<title>R4&#45;&#45;R1</title>
<path fill="none" stroke="black" d="M188.36,-98.61C182.62,-111.82 174.81,-129.78 169.07,-142.97"/>
</g>
<!-- PE1 -->
<g id="node5" class="node">
<title>PE1</title>
<ellipse fill="none" stroke="black" cx="80.71" cy="-164.39" rx="27" ry="18"/>
<text text-anchor="middle" x="80.71" y="-160.69" font-family="Times New Roman,serif" font-size="14.00">PE1</text>
</g>
<!-- PE1&#45;&#45;R1 -->
<g id="edge5" class="edge">
<title>PE1&#45;&#45;R1</title>
<path fill="none" stroke="black" d="M108.03,-163.11C116.44,-162.72 125.7,-162.28 134.11,-161.89"/>
</g>
<!-- PE2 -->
<g id="node6" class="node">
<title>PE2</title>
<ellipse fill="none" stroke="black" cx="287.37" cy="-253.98" rx="27" ry="18"/>
<text text-anchor="middle" x="287.37" y="-250.28" font-family="Times New Roman,serif" font-size="14.00">PE2</text>
</g>
<!-- PE2&#45;&#45;R2 -->
<g id="edge6" class="edge">
<title>PE2&#45;&#45;R2</title>
<path fill="none" stroke="black" d="M273.87,-238.15C266.1,-229.04 256.37,-217.63 248.59,-208.49"/>
</g>
<!-- PE3 -->
<g id="node7" class="node">
<title>PE3</title>
<ellipse fill="none" stroke="black" cx="349.98" cy="-106.69" rx="27" ry="18"/>
<text text-anchor="middle" x="349.98" y="-102.99" font-family="Times New Roman,serif" font-size="14.00">PE3</text>
</g>
<!-- PE3&#45;&#45;R3 -->
<g id="edge7" class="edge">
<title>PE3&#45;&#45;R3</title>
<path fill="none" stroke="black" d="M322.71,-108.75C314.31,-109.38 305.07,-110.07 296.67,-110.7"/>
</g>
<!-- PE4 -->
<g id="node8" class="node">
<title>PE4</title>
<ellipse fill="none" stroke="black" cx="145.39" cy="-18" rx="27" ry="18"/>
<text text-anchor="middle" x="145.39" y="-14.3" font-family="Times New Roman,serif" font-size="14.00">PE4</text>
</g>
<!-- PE4&#45;&#45;R4 -->
<g id="edge8" class="edge">
<title>PE4&#45;&#45;R4</title>
<path fill="none" stroke="black" d="M158.43,-34.21C166.06,-43.67 175.64,-55.57 183.22,-64.99"/>
</g>
<!-- C0_1 -->
<g id="node9" class="node">
<title>C0_1</title>
<ellipse fill="none" stroke="black" cx="30.55" cy="-99.37" rx="30.59" ry="18"/>
<text text-anchor="middle" x="30.55" y="-95.67" font-family="Times New Roman,serif" font-size="14.00">C0_1</text>
</g>
<!-- C0_1&#45;&#45;PE1 -->
<g id="edge11" class="edge">
<title>C0_1&#45;&#45;PE1</title>
<path fill="none" stroke="blue" d="M43.46,-116.12C51.13,-126.05 60.79,-138.58 68.35,-148.38"/>
</g>
<!-- C0_2 -->
<g id="node10" class="node">
<title>C0_2</title>
<ellipse fill="none" stroke="black" cx="63.68" cy="-24.11" rx="30.59" ry="18"/>
<text text-anchor="middle" x="63.68" y="-20.41" font-family="Times New Roman,serif" font-size="14.00">C0_2</text>
</g>
<!-- C0_1&#45;&#45;C0_2 -->
<g id="edge9" class="edge">
<title>C0_1&#45;&#45;C0_2</title>
<path fill="none" stroke="red" d="M38.4,-81.54C43.68,-69.54 50.62,-53.79 55.89,-41.82"/>
</g>
<!-- C0_2&#45;&#45;PE4 -->
<g id="edge12" class="edge">
<title>C0_2&#45;&#45;PE4</title>
<path fill="none" stroke="blue" d="M94.11,-21.84C102,-21.25 110.45,-20.61 118.17,-20.04"/>
</g>
<!-- C1_1 -->
<g id="node11" class="node">
<title>C1_1</title>
<ellipse fill="none" stroke="black" cx="369.12" cy="-246.13" rx="30.59" ry="18"/>
<text text-anchor="middle" x="369.12" y="-242.43" font-family="Times New Roman,serif" font-size="14.00">C1_1</text>
</g>
<!-- C1_1&#45;&#45;PE2 -->
<g id="edge13" class="edge">
<title>C1_1&#45;&#45;PE2</title>
<path fill="none" stroke="blue" d="M338.68,-249.05C330.69,-249.82 322.13,-250.64 314.33,-251.39"/>
</g>
<!-- C1_2 -->
<g id="node12" class="node">
<title>C1_2</title>
<ellipse fill="none" stroke="black" cx="401.39" cy="-170.5" rx="30.59" ry="18"/>
<text text-anchor="middle" x="401.39" y="-166.8" font-family="Times New Roman,serif" font-size="14.00">C1_2</text>
</g>
<!-- C1_1&#45;&#45;C1_2 -->
<g id="edge10" class="edge">
<title>C1_1&#45;&#45;C1_2</title>
<path fill="none" stroke="red" d="M376.76,-228.21C381.91,-216.15 388.66,-200.32 393.79,-188.29"/>
</g>
<!-- C1_2&#45;&#45;PE3 -->
<g id="edge14" class="edge">
<title>C1_2&#45;&#45;PE3</title>
<path fill="none" stroke="blue" d="M388.15,-154.06C380.41,-144.47 370.69,-132.4 363,-122.85"/>
</g>
</g>
</svg>
