<?xml version="1.0" encoding="UTF-8" standalone="no"?>
<!DOCTYPE svg PUBLIC "-//W3C//DTD SVG 1.1//EN"
 "http://www.w3.org/Graphics/SVG/1.1/DTD/svg11.dtd">
<!-- Generated by graphviz version 7.0.4 (20221203.1631)
 -->
<!-- Title: G Pages: 1 -->
<svg width="358pt" height="462pt"
 viewBox="0.00 0.00 358.00 462.00" xmlns="http://www.w3.org/2000/svg" xmlns:xlink="http://www.w3.org/1999/xlink">
<g id="graph0" class="graph" transform="scale(1 1) rotate(0) translate(4 458)">
<title>G</title>
<polygon fill="white" stroke="none" points="-4,4 -4,-458 354,-458 354,4 -4,4"/>
<g id="clust1" class="cluster">
<title>cluster_provider</title>
<polygon fill="none" stroke="black" points="94,-8 94,-371 256,-371 256,-8 94,-8"/>
<text text-anchor="middle" x="175" y="-355.8" font-family="Times New Roman,serif" font-size="14.00">provider</text>
</g>
<g id="clust2" class="cluster">
<title>cluster_client_0</title>
<polygon fill="none" stroke="black" points="8,-296 8,-446 86,-446 86,-296 8,-296"/>
<text text-anchor="middle" x="47" y="-430.8" font-family="Times New Roman,serif" font-size="14.00">client0</text>
</g>
<g id="clust3" class="cluster">
<title>cluster_client_1</title>
<polygon fill="none" stroke="black" points="264,-224 264,-371 342,-371 342,-224 264,-224"/>
<text text-anchor="middle" x="303" y="-355.8" font-family="Times New Roman,serif" font-size="14.00">client1</text>
</g>
<!-- R1 -->
<g id="node1" class="node">
<title>R1</title>
<ellipse fill="none" stroke="black" cx="129" cy="-250" rx="27" ry="18"/>
<text text-anchor="middle" x="129" y="-246.3" font-family="Times New Roman,serif" font-size="14.00">R1</text>
</g>
<!-- R2 -->
<g id="node2" class="node">
<title>R2</title>
<ellipse fill="none" stroke="black" cx="149" cy="-178" rx="27" ry="18"/>
<text text-anchor="middle" x="149" y="-174.3" font-family="Times New Roman,serif" font-size="14.00">R2</text>
</g>
<!-- R1&#45;&#45;R2 -->
<g id="edge1" class="edge">
<title>R1&#45;&#45;R2</title>
<path fill="none" stroke="black" d="M133.84,-232.05C136.99,-221.05 141.07,-206.76 144.2,-195.79"/>
</g>
<!-- R3 -->
<g id="node3" class="node">
<title>R3</title>
<ellipse fill="none" stroke="black" cx="221" cy="-106" rx="27" ry="18"/>
<text text-anchor="middle" x="221" y="-102.3" font-family="Times New Roman,serif" font-size="14.00">R3</text>
</g>
<!-- R2&#45;&#45;R3 -->
<g id="edge2" class="edge">
<title>R2&#45;&#45;R3</title>
<path fill="none" stroke="black" d="M163.92,-162.5C176.28,-150.48 193.75,-133.49 206.1,-121.49"/>
</g>
<!-- R4 -->
<g id="node4" class="node">
<title>R4</title>
<ellipse fill="none" stroke="black" cx="175" cy="-34" rx="27" ry="18"/>
<text text-anchor="middle" x="175" y="-30.3" font-family="Times New Roman,serif" font-size="14.00">R4</text>
</g>
<!-- R3&#45;&#45;R4 -->
<g id="edge3" class="edge">
<title>R3&#45;&#45;R4</title>
<path fill="none" stroke="black" d="M210.56,-89.12C203.03,-77.66 192.92,-62.26 185.4,-50.82"/>
</g>
<!-- R4&#45;&#45;R1 -->
<g id="edge4" class="edge">
<title>R4&#45;&#45;R1</title>
<path fill="none" stroke="black" d="M177.1,-52.39C178.51,-71.37 178.16,-101.98 165,-124 150.58,-148.13 126.05,-135.1 113,-160 100.83,-183.22 111.35,-214.02 120.13,-232.63"/>
</g>
<!-- PE1 -->
<g id="node5" class="node">
<title>PE1</title>
<ellipse fill="none" stroke="black" cx="129" cy="-322" rx="27" ry="18"/>
<text text-anchor="middle" x="129" y="-318.3" font-family="Times New Roman,serif" font-size="14.00">PE1</text>
</g>
<!-- PE1&#45;&#45;R1 -->
<g id="edge5" class="edge">
<title>PE1&#45;&#45;R1</title>
<path fill="none" stroke="black" d="M129,-303.7C129,-292.85 129,-278.92 129,-268.1"/>
</g>
<!-- PE2 -->
<g id="node6" class="node">
<title>PE2</title>
<ellipse fill="none" stroke="black" cx="211" cy="-250" rx="27" ry="18"/>
<text text-anchor="middle" x="211" y="-246.3" font-family="Times New Roman,serif" font-size="14.00">PE2</text>
</g>
<!-- PE2&#45;&#45;R2 -->
<g id="edge6" class="edge">
<title>PE2&#45;&#45;R2</title>
<path fill="none" stroke="black" d="M197.85,-234.15C187.33,-222.28 172.65,-205.7 162.13,-193.82"/>
</g>
<!-- PE3 -->
<g id="node7" class="node">
<title>PE3</title>
<ellipse fill="none" stroke="black" cx="221" cy="-178" rx="27" ry="18"/>
<text text-anchor="middle" x="221" y="-174.3" font-family="Times New Roman,serif" font-size="14.00">PE3</text>
</g>
<!-- PE3&#45;&#45;R3 -->
<g id="edge7" class="edge">
<title>PE3&#45;&#45;R3</title>
<path fill="none" stroke="black" d="M221,-159.7C221,-148.85 221,-134.92 221,-124.1"/>
</g>
<!-- PE4 -->
<g id="node8" class="node">
<title>PE4</title>
<ellipse fill="none" stroke="black" cx="129" cy="-106" rx="27" ry="18"/>
<text text-anchor="middle" x="129" y="-102.3" font-family="Times New Roman,serif" font-size="14.00">PE4</text>
</g>
<!-- PE4&#45;&#45;R4 -->
<g id="edge8" class="edge">
<title>PE4&#45;&#45;R4</title>
<path fill="none" stroke="black" d="M139.44,-89.12C146.97,-77.66 157.08,-62.26 164.6,-50.82"/>
</g>
<!-- C0_1 -->
<g id="node9" class="node">
<title>C0_1</title>
<ellipse fill="none" stroke="black" cx="47" cy="-397" rx="30.59" ry="18"/>
<text text-anchor="middle" x="47" y="-393.3" font-family="Times New Roman,serif" font-size="14.00">C0_1</text>
</g>
<!-- C0_1&#45;&#45;PE1 -->
<g id="edge11" class="edge">
<title>C0_1&#45;&#45;PE1</title>
<path fill="none" stroke="blue" d="M69.9,-384.72C76.71,-380.84 83.96,-376.16 90,-371 100.93,-361.65 111.11,-348.94 118.32,-338.94"/>
</g>
<!-- C0_2 -->
<g id="node10" class="node">
<title>C0_2</title>
<ellipse fill="none" stroke="black" cx="47" cy="-322" rx="30.59" ry="18"/>
<text text-anchor="middle" x="47" y="-318.3" font-family="Times New Roman,serif" font-size="14.00">C0_2</text>
</g>
<!-- C0_1&#45;&#45;C0_2 -->
<g id="edge9" class="edge">
<title>C0_1&#45;&#45;C0_2</title>
<path fill="none" stroke="red" d="M47,-378.7C47,-367.15 47,-352.01 47,-340.43"/>
</g>
<!-- C0_2&#45;&#45;PE4 -->
<g id="edge12" class="edge">
<title>C0_2&#45;&#45;PE4</title>
<path fill="none" stroke="blue" d="M52.22,-303.82C61.41,-274.1 81.57,-211.34 103,-160 108.21,-147.52 114.96,-133.81 120.28,-123.47"/>
</g>
<!-- C1_1 -->
<g id="node11" class="node">
<title>C1_1</title>
<ellipse fill="none" stroke="black" cx="303" cy="-322" rx="30.59" ry="18"/>
<text text-anchor="middle" x="303" y="-318.3" font-family="Times New Roman,serif" font-size="14.00">C1_1</text>
</g>
<!-- C1_1&#45;&#45;PE2 -->
<g id="edge13" class="edge">
<title>C1_1&#45;&#45;PE2</title>
<path fill="none" stroke="blue" d="M284.82,-307.17C268.38,-294.66 244.34,-276.37 228.2,-264.09"/>
</g>
<!-- C1_2 -->
<g id="node12" class="node">
<title>C1_2</title>
<ellipse fill="none" stroke="black" cx="303" cy="-250" rx="30.59" ry="18"/>
<text text-anchor="middle" x="303" y="-246.3" font-family="Times New Roman,serif" font-size="14.00">C1_2</text>
</g>
<!-- C1_1&#45;&#45;C1_2 -->
<g id="edge10" class="edge">
<title>C1_1&#45;&#45;C1_2</title>
<path fill="none" stroke="red" d="M303,-303.7C303,-292.85 303,-278.92 303,-268.1"/>
</g>
<!-- C1_2&#45;&#45;PE3 -->
<g id="edge14" class="edge">
<title>C1_2&#45;&#45;PE3</title>
<path fill="none" stroke="blue" d="M286.41,-234.83C271.99,-222.53 251.25,-204.82 237.01,-192.67"/>
</g>
</g>
</svg>
